<svg width="108" height="97" viewBox="0 0 108 97" fill="none" xmlns="http://www.w3.org/2000/svg">
<path d="M71.4375 30.375C72.75 27.1875 73.5 24.5625 73.5 22.5C73.5 11.8125 64.6875 3 54 3C43.125 3 34.5 11.8125 34.5 22.5C34.5 24.5625 35.0625 27.1875 36.375 30.375C37.6875 33.375 39.5625 36.75 41.625 40.125C45.75 46.6875 50.4375 53.0625 53.4375 56.625C53.625 57 54.1875 57 54.375 56.625C57.375 53.0625 62.25 46.6875 66.1875 40.125C68.25 36.75 70.125 33.375 71.4375 30.375ZM56.625 58.5C55.3125 60.375 52.5 60.375 51.1875 58.5C45.1875 51 31.5 32.8125 31.5 22.5C31.5 10.125 41.4375 0 54 0C66.375 0 76.5 10.125 76.5 22.5C76.5 32.8125 62.625 51 56.625 58.5ZM78.9375 35.625C79.125 35.0625 79.5 34.5 79.6875 33.75C80.0625 33.1875 80.25 32.625 80.4375 31.875L99.9375 24.9375C103.688 23.4375 108 26.4375 108 30.5625V79.5C108 81.9375 106.312 84.1875 103.875 85.125L73.875 96C73.6875 96.1875 73.3125 96.1875 72.9375 96L34.5 84.1875L7.875 93.75C4.125 95.25 0 92.25 0 88.125V39.1875C0 36.75 1.5 34.5 3.9375 33.5625L25.6875 25.6875C25.875 26.625 26.0625 27.75 26.25 28.6875L4.875 36.375C3.75 36.9375 3 38.0625 3 39.1875V88.125C3 90.1875 5.0625 91.6875 6.9375 90.9375L33 81.5625V55.5C33 54.75 33.5625 54 34.5 54C35.25 54 36 54.75 36 55.5V81.5625L72 92.625V55.5C72 54.75 72.5625 54 73.5 54C74.25 54 75 54.75 75 55.5V92.4375L102.938 82.3125C104.062 81.75 105 80.625 105 79.5V30.5625C105 28.5 102.75 27 100.875 27.75L78.9375 35.625ZM48 21C48 24.375 50.625 27 54 27C57.1875 27 60 24.375 60 21C60 17.8125 57.1875 15 54 15C50.625 15 48 17.8125 48 21ZM63 21C63 24.375 61.125 27.1875 58.5 28.875C55.6875 30.5625 52.125 30.5625 49.5 28.875C46.6875 27.1875 45 24.375 45 21C45 17.8125 46.6875 15 49.5 13.3125C52.125 11.625 55.6875 11.625 58.5 13.3125C61.125 15 63 17.8125 63 21Z" fill="white" fill-opacity="0.2"/>
</svg>
